<svg width="176" height="122" viewBox="0 0 176 122" fill="none" xmlns="http://www.w3.org/2000/svg">
<path d="M18.8677 76.7528C16.0052 76.7528 13.5516 76.0079 11.5069 74.5182C9.49147 73.0286 8.06021 70.9255 7.21313 68.209L12.0327 66.4126C12.6753 68.282 13.5662 69.6987 14.7054 70.6626C15.8445 71.5973 17.2466 72.0646 18.9115 72.0646C20.927 72.0646 22.5481 71.3636 23.7749 69.9616C25.0017 68.5595 25.6151 66.7047 25.6151 64.3972V45.6009H30.8728V64.4848C30.8728 66.9676 30.3762 69.1291 29.3831 70.9693C28.39 72.8095 26.9879 74.2407 25.1769 75.2631C23.3952 76.2562 21.2921 76.7528 18.8677 76.7528Z" fill="#1F2BD5"/>
<path d="M51.5866 76.8022C48.7919 76.8022 46.253 76.133 43.97 74.7947C41.7263 73.4564 39.955 71.6457 38.6561 69.3627C37.3571 67.0403 36.7076 64.4227 36.7076 61.5099C36.7076 58.5971 37.3571 55.9991 38.6561 53.7161C39.955 51.3937 41.7263 49.5634 43.97 48.2251C46.2136 46.8867 48.7525 46.2176 51.5866 46.2176C54.4207 46.2176 56.9399 46.8867 59.1442 48.2251C61.3879 49.5634 63.1592 51.3937 64.4581 53.7161C65.7571 55.9991 66.4066 58.5971 66.4066 61.5099C66.4066 64.4227 65.7571 67.0403 64.4581 69.3627C63.1592 71.6457 61.3879 73.4564 59.1442 74.7947C56.9399 76.133 54.4207 76.8022 51.5866 76.8022ZM51.5866 71.134C53.2005 71.134 54.6175 70.7207 55.8378 69.8941C57.0974 69.0675 58.0814 67.926 58.7899 66.4696C59.4985 64.9738 59.8527 63.3206 59.8527 61.5099C59.8527 59.6599 59.4985 58.0263 58.7899 56.6093C58.0814 55.1529 57.0974 54.0113 55.8378 53.1847C54.6175 52.3188 53.2005 51.8858 51.5866 51.8858C49.9728 51.8858 48.536 52.3188 47.2764 53.1847C46.0168 54.0113 45.0328 55.1529 44.3242 56.6093C43.6157 58.0263 43.2615 59.6599 43.2615 61.5099C43.2615 63.3599 43.6157 65.0131 44.3242 66.4696C45.0328 67.926 46.0168 69.0675 47.2764 69.8941C48.536 70.7207 49.9728 71.134 51.5866 71.134Z" fill="#1F2BD5"/>
<path d="M73.2958 76.2708V46.6899H79.9677V51.5315C81.1092 49.7602 82.4672 48.4416 84.0417 47.5756C85.6162 46.6703 87.3678 46.2176 89.2966 46.2176C91.3434 46.2176 93.1344 46.6703 94.6696 47.5756C96.2047 48.4416 97.4052 49.6618 98.2712 51.2363C99.1766 52.8108 99.6292 54.6608 99.6292 56.7864V76.2708H92.8983V58.6758C92.8983 56.5109 92.3078 54.7986 91.1269 53.539C89.9461 52.24 88.3716 51.5906 86.4034 51.5906C85.0651 51.5906 83.8449 51.9055 82.7427 52.5353C81.68 53.1257 80.7549 54.0113 79.9677 55.1922V76.2708H73.2958Z" fill="#1F2BD5"/>
<path d="M121.815 76.9723C119.514 76.9723 117.376 76.5741 115.4 75.7777C113.453 74.9518 111.727 73.8162 110.223 72.3709C108.748 70.8961 107.598 69.2001 106.772 67.2829C105.946 65.3362 105.533 63.242 105.533 61.0003C105.533 58.7586 105.946 56.6792 106.772 54.7619C107.598 52.8152 108.734 51.1192 110.179 49.6739C111.654 48.1991 113.364 47.0635 115.311 46.2671C117.287 45.4413 119.411 45.0283 121.682 45.0283C124.278 45.0283 126.726 45.5592 129.027 46.6211C131.357 47.6534 133.245 49.1282 134.69 51.0455L129.336 55.691C128.363 54.3932 127.227 53.4199 125.93 52.771C124.632 52.1221 123.216 51.7976 121.682 51.7976C120.502 51.7976 119.396 52.0336 118.364 52.5055C117.361 52.9479 116.491 53.5968 115.754 54.4522C115.016 55.2781 114.441 56.2515 114.028 57.3723C113.615 58.4636 113.409 59.673 113.409 61.0003C113.409 62.3276 113.615 63.5664 114.028 64.7168C114.471 65.8376 115.075 66.811 115.842 67.6368C116.609 68.4627 117.509 69.1116 118.541 69.5836C119.573 70.0555 120.709 70.2915 121.948 70.2915C123.128 70.2915 124.189 70.0702 125.133 69.6278C126.107 69.1854 126.933 68.5807 127.611 67.8138C128.289 67.0174 128.761 66.1178 129.027 65.1149H121.284V58.6996H137.212V60.8676C137.212 63.1977 136.828 65.3509 136.061 67.3271C135.324 69.2739 134.262 70.9699 132.876 72.4152C131.49 73.8604 129.853 74.9813 127.965 75.7777C126.107 76.5741 124.057 76.9723 121.815 76.9723Z" fill="#1F2BD5"/>
<path d="M152.771 76.9723C150.529 76.9723 148.435 76.5741 146.488 75.7777C144.541 74.9518 142.831 73.8162 141.356 72.3709C139.911 70.8961 138.775 69.2001 137.949 67.2829C137.153 65.3362 136.754 63.242 136.754 61.0003C136.754 58.7586 137.153 56.6792 137.949 54.7619C138.775 52.8152 139.911 51.1192 141.356 49.6739C142.831 48.1991 144.541 47.0635 146.488 46.2671C148.435 45.4413 150.529 45.0283 152.771 45.0283C155.012 45.0283 157.107 45.4413 159.053 46.2671C161 47.0635 162.696 48.1991 164.141 49.6739C165.616 51.1192 166.752 52.8152 167.548 54.7619C168.374 56.6792 168.787 58.7586 168.787 61.0003C168.787 63.242 168.374 65.3362 167.548 67.2829C166.752 69.2001 165.616 70.8961 164.141 72.3709C162.696 73.8162 161 74.9518 159.053 75.7777C157.107 76.5741 155.012 76.9723 152.771 76.9723ZM152.771 70.203C153.921 70.203 154.998 69.9818 156 69.5393C157.003 69.0674 157.873 68.4185 158.611 67.5926C159.348 66.7372 159.923 65.7639 160.336 64.6725C160.749 63.5517 160.956 62.3276 160.956 61.0003C160.956 59.673 160.749 58.4636 160.336 57.3723C159.923 56.2515 159.348 55.2781 158.611 54.4522C157.873 53.5968 157.003 52.9479 156 52.5055C154.998 52.0336 153.921 51.7976 152.771 51.7976C151.62 51.7976 150.544 52.0336 149.541 52.5055C148.538 52.9479 147.668 53.5968 146.931 54.4522C146.193 55.2781 145.618 56.2515 145.205 57.3723C144.792 58.4636 144.586 59.673 144.586 61.0003C144.586 62.3276 144.792 63.5517 145.205 64.6725C145.618 65.7639 146.193 66.7372 146.931 67.5926C147.668 68.4185 148.538 69.0674 149.541 69.5393C150.544 69.9818 151.62 70.203 152.771 70.203Z" fill="#1F2BD5"/>
</svg>
