<svg width="62" height="43" viewBox="0 0 62 43" fill="none" xmlns="http://www.w3.org/2000/svg">
<path d="M7.03936 27.2767C6.04724 27.2767 5.19685 27.0185 4.48819 26.5022C3.78965 25.9859 3.29359 25.257 3 24.3155L4.67041 23.6929C4.89314 24.3408 5.20191 24.8318 5.59673 25.1659C5.99156 25.4898 6.4775 25.6518 7.05455 25.6518C7.75309 25.6518 8.31495 25.4088 8.74015 24.9229C9.16534 24.4369 9.37794 23.7941 9.37794 22.9943V16.4797H11.2002V23.0247C11.2002 23.8852 11.0281 24.6344 10.6839 25.2722C10.3397 25.9099 9.85376 26.406 9.22609 26.7603C8.60854 27.1045 7.87963 27.2767 7.03936 27.2767Z" fill="#1F2BD5"/>
<path d="M18.3794 27.2938C17.4108 27.2938 16.5309 27.0619 15.7396 26.598C14.962 26.1342 14.348 25.5066 13.8978 24.7153C13.4476 23.9104 13.2225 23.0032 13.2225 21.9936C13.2225 20.9841 13.4476 20.0836 13.8978 19.2924C14.348 18.4874 14.962 17.8531 15.7396 17.3892C16.5172 16.9254 17.3972 16.6934 18.3794 16.6934C19.3617 16.6934 20.2348 16.9254 20.9988 17.3892C21.7765 17.8531 22.3904 18.4874 22.8406 19.2924C23.2908 20.0836 23.5159 20.9841 23.5159 21.9936C23.5159 23.0032 23.2908 23.9104 22.8406 24.7153C22.3904 25.5066 21.7765 26.1342 20.9988 26.598C20.2348 27.0619 19.3617 27.2938 18.3794 27.2938ZM18.3794 25.3292C18.9388 25.3292 19.4299 25.186 19.8529 24.8995C20.2894 24.613 20.6305 24.2174 20.876 23.7126C21.1216 23.1942 21.2444 22.6212 21.2444 21.9936C21.2444 21.3524 21.1216 20.7862 20.876 20.2951C20.6305 19.7903 20.2894 19.3947 19.8529 19.1082C19.4299 18.8081 18.9388 18.658 18.3794 18.658C17.8201 18.658 17.3221 18.8081 16.8856 19.1082C16.449 19.3947 16.1079 19.7903 15.8624 20.2951C15.6168 20.7862 15.494 21.3524 15.494 21.9936C15.494 22.6348 15.6168 23.2078 15.8624 23.7126C16.1079 24.2174 16.449 24.613 16.8856 24.8995C17.3221 25.186 17.8201 25.3292 18.3794 25.3292Z" fill="#1F2BD5"/>
<path d="M25.9036 27.1096V16.8571H28.2161V18.5352C28.6117 17.9213 29.0824 17.4642 29.6281 17.1641C30.1738 16.8503 30.7809 16.6934 31.4494 16.6934C32.1588 16.6934 32.7795 16.8503 33.3116 17.1641C33.8437 17.4642 34.2598 17.8872 34.5599 18.4329C34.8737 18.9786 35.0306 19.6198 35.0306 20.3565V27.1096H32.6977V21.0113C32.6977 20.261 32.493 19.6675 32.0838 19.231C31.6745 18.7808 31.1288 18.5557 30.4466 18.5557C29.9828 18.5557 29.5599 18.6648 29.1779 18.8831C28.8095 19.0877 28.4889 19.3947 28.2161 19.804V27.1096H25.9036Z" fill="#1F2BD5"/>
<path d="M42.72 27.3527C41.9226 27.3527 41.1814 27.2147 40.4965 26.9387C39.8217 26.6525 39.2237 26.2589 38.7023 25.7579C38.1912 25.2468 37.7925 24.659 37.5062 23.9945C37.22 23.3198 37.0769 22.5939 37.0769 21.817C37.0769 21.04 37.22 20.3193 37.5062 19.6548C37.7925 18.9801 38.1861 18.3923 38.687 17.8914C39.1981 17.3802 39.7911 16.9866 40.4658 16.7106C41.1507 16.4244 41.8868 16.2812 42.674 16.2812C43.5736 16.2812 44.4221 16.4653 45.2195 16.8333C46.0271 17.1911 46.6814 17.7022 47.1823 18.3667L45.3268 19.9769C44.9895 19.527 44.5959 19.1897 44.1461 18.9648C43.6963 18.7399 43.2055 18.6274 42.674 18.6274C42.265 18.6274 41.8817 18.7092 41.5239 18.8728C41.1763 19.0261 40.8747 19.251 40.6191 19.5475C40.3636 19.8337 40.1642 20.1711 40.0211 20.5596C39.878 20.9378 39.8064 21.357 39.8064 21.817C39.8064 22.277 39.878 22.7064 40.0211 23.1051C40.1744 23.4936 40.384 23.8309 40.6498 24.1172C40.9156 24.4034 41.2274 24.6283 41.5852 24.7919C41.943 24.9554 42.3366 25.0372 42.766 25.0372C43.1749 25.0372 43.5429 24.9606 43.87 24.8072C44.2074 24.6539 44.4936 24.4443 44.7288 24.1785C44.9639 23.9025 45.1275 23.5907 45.2195 23.2431H42.5359V21.0196H48.0564V21.771C48.0564 22.5786 47.9235 23.3249 47.6577 24.0098C47.4021 24.6845 47.0341 25.2724 46.5536 25.7733C46.0731 26.2742 45.5057 26.6627 44.8514 26.9387C44.2074 27.2147 43.4969 27.3527 42.72 27.3527Z" fill="#1F2BD5"/>
<path d="M53.4489 27.3527C52.672 27.3527 51.9462 27.2147 51.2714 26.9387C50.5967 26.6525 50.0038 26.2589 49.4926 25.7579C48.9917 25.2468 48.5981 24.659 48.3119 23.9945C48.0359 23.3198 47.8979 22.5939 47.8979 21.817C47.8979 21.04 48.0359 20.3193 48.3119 19.6548C48.5981 18.9801 48.9917 18.3923 49.4926 17.8914C50.0038 17.3802 50.5967 16.9866 51.2714 16.7106C51.9462 16.4244 52.672 16.2812 53.4489 16.2812C54.2259 16.2812 54.9517 16.4244 55.6264 16.7106C56.3011 16.9866 56.889 17.3802 57.3899 17.8914C57.901 18.3923 58.2946 18.9801 58.5706 19.6548C58.8569 20.3193 59 21.04 59 21.817C59 22.5939 58.8569 23.3198 58.5706 23.9945C58.2946 24.659 57.901 25.2468 57.3899 25.7579C56.889 26.2589 56.3011 26.6525 55.6264 26.9387C54.9517 27.2147 54.2259 27.3527 53.4489 27.3527ZM53.4489 25.0066C53.8476 25.0066 54.2208 24.9299 54.5683 24.7765C54.9159 24.613 55.2175 24.3881 55.4731 24.1018C55.7286 23.8054 55.928 23.468 56.0711 23.0897C56.2142 22.7013 56.2858 22.277 56.2858 21.817C56.2858 21.357 56.2142 20.9378 56.0711 20.5596C55.928 20.1711 55.7286 19.8337 55.4731 19.5475C55.2175 19.251 54.9159 19.0261 54.5683 18.8728C54.2208 18.7092 53.8476 18.6274 53.4489 18.6274C53.0502 18.6274 52.6771 18.7092 52.3295 18.8728C51.9819 19.0261 51.6804 19.251 51.4248 19.5475C51.1692 19.8337 50.9699 20.1711 50.8267 20.5596C50.6836 20.9378 50.6121 21.357 50.6121 21.817C50.6121 22.277 50.6836 22.7013 50.8267 23.0897C50.9699 23.468 51.1692 23.8054 51.4248 24.1018C51.6804 24.3881 51.9819 24.613 52.3295 24.7765C52.6771 24.9299 53.0502 25.0066 53.4489 25.0066Z" fill="#1F2BD5"/>
</svg>
